<svg width="162" height="162" viewBox="0 0 162 162" fill="none" xmlns="http://www.w3.org/2000/svg">
<circle cx="81" cy="81" r="81" fill="url(#paint0_angular)"/>
<path d="M81.9854 119.835C85.2938 119.835 87.9758 117.136 87.9758 113.807C87.9758 110.478 85.2938 107.779 81.9854 107.779C78.6769 107.779 75.9949 110.478 75.9949 113.807C75.9949 117.136 78.6769 119.835 81.9854 119.835Z" fill="#FECD0B"/>
<path d="M117.773 119.496C121.124 118.483 124.687 117.427 127.345 115.02C129.72 112.868 131.323 109.583 130.339 106.357C129.358 103.137 126.416 100.99 123.38 99.9224C121.658 99.3167 119.856 98.9807 118.055 98.7168C116.097 98.4299 114.13 98.1948 112.164 97.9686C104.205 97.0526 96.216 96.493 88.1968 96.2899C84.2399 96.1896 80.2838 96.192 76.3263 96.2498C72.792 96.3014 69.0697 96.3002 65.791 94.7887C63.2414 93.6134 60.9273 91.475 60.2168 88.665C59.3968 85.4213 60.9094 82.118 63.0792 79.7688C64.223 78.5305 65.5597 77.4883 66.9387 76.5299C68.4347 75.4903 69.9828 74.5243 71.5645 73.6225C74.6797 71.8474 77.9365 70.3366 81.3012 69.1059C82.961 68.4987 84.6455 67.9747 86.3446 67.4914C87.7793 67.0833 89.2185 66.6746 90.6051 66.1185C93.2856 65.0435 95.8351 63.2226 96.5167 60.2375C97.1627 57.4082 96.0735 54.3369 94.1641 52.2351C91.9551 49.8035 88.6243 48.7375 85.4311 48.5651C81.8461 48.3714 78.3438 49.2742 74.9742 50.42C71.3804 51.642 67.864 53.0471 64.1942 54.037C60.5551 55.0175 56.8456 55.7114 53.0994 56.1121C51.2655 56.3086 49.3761 56.5305 47.5313 56.38C45.9852 56.254 44.447 55.7964 43.3075 54.6924C42.3305 53.7457 41.7485 52.4446 41.9486 51.0715C41.9849 50.8222 42.3614 50.9282 42.3253 51.1761C42.0817 52.8474 43.2108 54.3875 44.6022 55.1765C46.2103 56.0882 48.1671 56.0895 49.9574 55.9852C53.8393 55.7493 57.695 55.1885 61.4844 54.3085C65.208 53.4528 68.7985 52.2295 72.385 50.9227C75.7912 49.6816 79.2736 48.4703 82.9126 48.2015C86.0701 47.9682 89.3916 48.4311 92.1424 50.0914C94.5599 51.5506 96.3376 53.9841 96.9041 56.7766C97.4576 59.5053 96.691 62.2518 94.6381 64.1561C92.5126 66.1277 89.5982 66.9706 86.8822 67.7469C83.4374 68.7315 80.0665 69.8825 76.8036 71.377C73.4963 72.8875 70.3243 74.6818 67.323 76.74C64.4259 78.732 61.5669 81.2385 60.6506 84.7922C60.2238 86.4476 60.3026 88.2033 61.0167 89.7669C61.6517 91.1572 62.6975 92.3266 63.9158 93.2287C66.8226 95.3808 70.4861 95.8227 73.9973 95.8667C77.9408 95.916 81.8844 95.7821 85.8291 95.8473C93.8684 95.98 101.891 96.4724 109.898 97.3244C111.904 97.538 113.907 97.7742 115.909 98.0329C117.709 98.2656 119.515 98.4968 121.284 98.9101C124.431 99.645 127.493 101.058 129.448 103.742C130.316 104.906 130.854 106.285 131.004 107.732C131.141 109.242 130.774 110.755 130.095 112.098C128.593 115.071 125.78 116.962 122.793 118.205C121.193 118.87 119.533 119.375 117.877 119.875C117.635 119.948 117.532 119.569 117.773 119.496L117.773 119.496Z" fill="#F2F2F2"/>
<path d="M42.2008 54.2518C43.927 54.2518 45.3263 52.8438 45.3263 51.1069C45.3263 49.3701 43.927 47.9621 42.2008 47.9621C40.4747 47.9621 39.0754 49.3701 39.0754 51.1069C39.0754 52.8438 40.4747 54.2518 42.2008 54.2518Z" fill="#F2F2F2"/>
<path d="M63.8837 60.2138C65.6099 60.2138 67.0092 58.8058 67.0092 57.069C67.0092 55.3321 65.6099 53.9241 63.8837 53.9241C62.1576 53.9241 60.7583 55.3321 60.7583 57.069C60.7583 58.8058 62.1576 60.2138 63.8837 60.2138Z" fill="#F2F2F2"/>
<path d="M82.2458 48.2897C83.9719 48.2897 85.3713 46.8817 85.3713 45.1448C85.3713 43.408 83.9719 42 82.2458 42C80.5197 42 79.1203 43.408 79.1203 45.1448C79.1203 46.8817 80.5197 48.2897 82.2458 48.2897Z" fill="#F2F2F2"/>
<path d="M93.7058 61.6552C95.432 61.6552 96.8313 60.2472 96.8313 58.5104C96.8313 56.7735 95.432 55.3655 93.7058 55.3655C91.9797 55.3655 90.5804 56.7735 90.5804 58.5104C90.5804 60.2472 91.9797 61.6552 93.7058 61.6552Z" fill="#F2F2F2"/>
<path d="M78.2087 77.1174C79.9349 77.1174 81.3342 75.7094 81.3342 73.9725C81.3342 72.2357 79.9349 70.8277 78.2087 70.8277C76.4826 70.8277 75.0833 72.2357 75.0833 73.9725C75.0833 75.7094 76.4826 77.1174 78.2087 77.1174Z" fill="#F2F2F2"/>
<path d="M58.5444 84.5863C60.2705 84.5863 61.6698 83.1783 61.6698 81.4415C61.6698 79.7046 60.2705 78.2966 58.5444 78.2966C56.8182 78.2966 55.4189 79.7046 55.4189 81.4415C55.4189 83.1783 56.8182 84.5863 58.5444 84.5863Z" fill="#F2F2F2"/>
<path d="M79.3808 96.2484C81.1069 96.2484 82.5063 94.8404 82.5063 93.1036C82.5063 91.3667 81.1069 89.9587 79.3808 89.9587C77.6547 89.9587 76.2553 91.3667 76.2553 93.1036C76.2553 94.8404 77.6547 96.2484 79.3808 96.2484Z" fill="#F2F2F2"/>
<path d="M101.78 102.8C103.506 102.8 104.905 101.392 104.905 99.6553C104.905 97.9185 103.506 96.5105 101.78 96.5105C100.054 96.5105 98.6545 97.9185 98.6545 99.6553C98.6545 101.392 100.054 102.8 101.78 102.8Z" fill="#F2F2F2"/>
<path d="M127.956 101.359C129.682 101.359 131.081 99.9508 131.081 98.2139C131.081 96.4771 129.682 95.0691 127.956 95.0691C126.23 95.0691 124.83 96.4771 124.83 98.2139C124.83 99.9508 126.23 101.359 127.956 101.359Z" fill="#F2F2F2"/>
<path d="M81.3437 50.9108C71.9814 50.9773 64.3156 58.6327 64.1826 68.0523C64.1814 68.1393 64.1808 68.7508 64.1809 69.5506C64.1809 70.7233 64.6439 71.8479 65.468 72.6772C66.2921 73.5064 67.4098 73.9723 68.5753 73.9725H68.5753C69.153 73.9724 69.7251 73.8577 70.2587 73.635C70.7924 73.4123 71.2773 73.0861 71.6856 72.6748C72.0939 72.2635 72.4176 71.7753 72.6383 71.2381C72.8591 70.7008 72.9724 70.1251 72.9719 69.5438C72.9715 68.9997 72.9712 68.6232 72.9712 68.6001C72.9709 67.1443 73.3472 65.7135 74.0632 64.4484C74.7791 63.1833 75.81 62.1276 77.0545 61.385C78.2989 60.6425 79.7141 60.2386 81.1607 60.2133C82.6073 60.1879 84.0355 60.5419 85.3049 61.2405C86.5743 61.939 87.6411 62.958 88.4004 64.1972C89.1597 65.4364 89.5853 66.8531 89.6354 68.308C89.6855 69.763 89.3583 71.2059 88.686 72.495C88.0138 73.7841 87.0196 74.8749 85.8012 75.6601L85.8028 75.662C85.8028 75.662 79.5482 79.7135 77.6413 85.2715L77.6429 85.2719C77.3076 86.4105 77.1377 87.5919 77.1385 88.7794C77.1385 89.2676 77.167 93.5388 77.2222 97.0055C77.2414 98.2016 77.7273 99.3422 78.5749 100.181C79.4225 101.02 80.5638 101.49 81.7528 101.49H81.7528C82.3502 101.49 82.9417 101.371 83.4933 101.14C84.0449 100.909 84.5456 100.571 84.9667 100.144C85.3878 99.718 85.721 99.212 85.9471 98.6556C86.1731 98.0992 86.2876 97.5033 86.2839 96.9022C86.2648 93.7273 86.2544 90.0305 86.2544 89.7622C86.2544 86.3494 89.5264 82.9491 92.2141 80.7316C95.3091 78.1781 97.5362 74.6984 98.4308 70.7731C98.6287 69.9649 98.7379 69.1373 98.7562 68.3052C98.7562 66.0103 98.3049 63.7381 97.4283 61.6195C96.5517 59.5009 95.2671 57.5777 93.6486 55.9608C92.03 54.344 90.1095 53.0653 87.9976 52.1986C85.8858 51.3319 83.6244 50.8942 81.3437 50.9108V50.9108Z" fill="#FECD0B"/>
<path d="M107.647 77.772C109.805 77.772 111.554 76.012 111.554 73.841C111.554 71.6699 109.805 69.9099 107.647 69.9099C105.49 69.9099 103.741 71.6699 103.741 73.841C103.741 76.012 105.49 77.772 107.647 77.772Z" fill="#080722"/>
<path d="M100.428 118.279H98.8316L98.072 112.083H100.428L100.428 118.279Z" fill="#753F47"/>
<path d="M97.6911 117.82H100.77V119.771H95.7525C95.7525 119.515 95.8026 119.261 95.9 119.024C95.9975 118.788 96.1403 118.573 96.3203 118.391C96.5003 118.21 96.714 118.067 96.9492 117.969C97.1845 117.871 97.4366 117.82 97.6911 117.82Z" fill="#080722"/>
<path d="M112.8 118.279H111.203L110.444 112.083H112.8L112.8 118.279Z" fill="#753F47"/>
<path d="M110.063 117.82H113.142V119.771H108.124C108.124 119.515 108.174 119.261 108.272 119.024C108.369 118.788 108.512 118.573 108.692 118.391C108.872 118.21 109.086 118.067 109.321 117.969C109.556 117.871 109.808 117.82 110.063 117.82V117.82Z" fill="#080722"/>
<path d="M107.054 77.7949C108.82 77.7949 110.252 76.354 110.252 74.5766C110.252 72.7991 108.82 71.3582 107.054 71.3582C105.287 71.3582 103.855 72.7991 103.855 74.5766C103.855 76.354 105.287 77.7949 107.054 77.7949Z" fill="#753F47"/>
<path d="M108.96 88.1775L110.391 84.8688C110.739 84.0927 110.839 83.2271 110.676 82.3915C110.514 81.556 110.098 80.7916 109.486 80.204C109.361 80.0789 109.227 79.9621 109.086 79.8541C108.38 79.2983 107.51 78.9953 106.613 78.9932C106.011 78.9956 105.415 79.1288 104.868 79.3837C104.822 79.4047 104.776 79.427 104.729 79.4492C104.639 79.4925 104.551 79.5396 104.465 79.5881C103.904 79.912 103.427 80.364 103.072 80.9075C102.717 81.451 102.493 82.0709 102.42 82.7172L101.789 88.0425C101.63 88.4605 95.9622 103.556 97.9443 115.08C97.9653 115.203 98.025 115.316 98.1145 115.403C98.204 115.489 98.3186 115.545 98.4417 115.561L100.451 115.836C100.598 115.856 100.747 115.82 100.868 115.734C100.989 115.648 101.073 115.52 101.104 115.374L104.475 99.2027C104.496 99.1023 104.55 99.0118 104.628 98.9457C104.706 98.8797 104.804 98.8419 104.906 98.8385C105.008 98.835 105.108 98.866 105.191 98.9266C105.273 98.9872 105.333 99.0738 105.361 99.1726L110.124 116.178C110.158 116.302 110.232 116.411 110.333 116.488C110.434 116.566 110.558 116.608 110.686 116.608C110.724 116.608 110.762 116.604 110.799 116.598L113.254 116.122C113.396 116.095 113.524 116.016 113.612 115.899C113.699 115.782 113.74 115.637 113.727 115.492C113.366 111.444 111.449 91.169 108.96 88.1775Z" fill="#080722"/>
<path d="M94.6235 77.2549C94.6013 77.4462 94.6211 77.6401 94.6814 77.823C94.7417 78.0058 94.8412 78.1731 94.9727 78.313C95.1042 78.453 95.2647 78.5622 95.4427 78.6331C95.6208 78.7039 95.8121 78.7346 96.0032 78.7229L97.791 83.0461L99.1435 81.0289L97.2383 77.2328C97.1976 76.9111 97.0411 76.6156 96.7983 76.4022C96.5556 76.1889 96.2435 76.0725 95.9212 76.0752C95.5988 76.078 95.2887 76.1996 95.0495 76.417C94.8104 76.6344 94.6588 76.9325 94.6235 77.2549L94.6235 77.2549Z" fill="#753F47"/>
<path d="M106.876 92.5305C107.067 92.5076 107.249 92.4431 107.412 92.3415C107.575 92.2398 107.713 92.1036 107.818 91.9422C107.922 91.7809 107.991 91.5985 108.017 91.4078C108.044 91.2171 108.03 91.0227 107.974 90.8384L111.735 88.0817L109.471 87.2283L106.246 89.977C105.944 90.0918 105.695 90.3138 105.546 90.6011C105.396 90.8883 105.356 91.2208 105.434 91.5356C105.512 91.8503 105.701 92.1255 105.967 92.3088C106.233 92.4922 106.557 92.5711 106.876 92.5305V92.5305Z" fill="#753F47"/>
<path d="M100.744 85.9283C100.6 85.9281 100.456 85.9139 100.315 85.8857C99.9725 85.8201 99.6516 85.6709 99.3803 85.4512C99.109 85.2315 98.8955 84.9479 98.7588 84.6256L96.2539 81.5524C96.201 81.4875 96.1624 81.4119 96.1409 81.3307C96.1193 81.2495 96.1153 81.1646 96.129 81.0817C96.1427 80.9988 96.1738 80.9198 96.2203 80.85C96.2668 80.7803 96.3276 80.7213 96.3986 80.677L98.1807 79.5671C98.2465 79.5261 98.3197 79.4986 98.3961 79.4862C98.4725 79.4739 98.5506 79.4769 98.6258 79.495C98.7011 79.5132 98.772 79.5461 98.8346 79.592C98.8971 79.6379 98.9499 79.6958 98.9901 79.7624L100.756 82.6889L104.136 80.1748C104.406 80.0328 104.717 79.9929 105.013 80.0626C105.309 80.1322 105.57 80.3067 105.748 80.554C105.927 80.8014 106.011 81.1053 105.986 81.41C105.96 81.7148 105.827 82.0001 105.609 82.2139L102.235 85.3111C101.838 85.7066 101.303 85.9284 100.744 85.9283Z" fill="#080722"/>
<path d="M109.88 90.5502C109.875 90.5502 109.87 90.5502 109.866 90.55C109.784 90.548 109.703 90.5287 109.629 90.4932C109.554 90.4578 109.488 90.407 109.435 90.3443L107.85 88.4844C107.796 88.4211 107.756 88.347 107.733 88.2669C107.71 88.1869 107.703 88.1028 107.715 88.0201C107.726 87.9375 107.755 87.8582 107.799 87.7875C107.843 87.7168 107.901 87.6563 107.97 87.6101L110.937 85.62L108.249 82.3687C108.093 82.1064 108.036 81.7963 108.088 81.495C108.14 81.1937 108.298 80.9213 108.533 80.7276C108.768 80.534 109.065 80.4319 109.369 80.4401C109.673 80.4483 109.963 80.5662 110.188 80.7723L113.455 83.9843C113.712 84.2206 113.908 84.5162 114.027 84.8456C114.145 85.1751 114.182 85.5285 114.135 85.8757C114.088 86.2229 113.958 86.5534 113.756 86.8388C113.554 87.1242 113.287 87.3561 112.976 87.5145L110.306 90.365C110.251 90.4234 110.185 90.47 110.112 90.5018C110.039 90.5337 109.96 90.5501 109.88 90.5502Z" fill="#080722"/>
<path d="M106.24 83.6971C106.215 83.6971 106.19 83.6955 106.164 83.6923C106.054 83.6788 105.95 83.6337 105.864 83.5624C105.779 83.4911 105.715 83.3966 105.681 83.2901L104.491 79.6173C104.461 79.5245 104.465 79.4239 104.504 79.3342C104.542 79.2444 104.611 79.1717 104.698 79.1293L104.737 79.1109C104.772 79.0941 104.807 79.0776 104.842 79.0617C105.397 78.8026 106.002 78.6675 106.613 78.6656C107.408 78.6671 108.185 78.9019 108.848 79.3413C108.937 79.4009 109 79.4932 109.021 79.5985C109.043 79.7038 109.023 79.8135 108.966 79.904L106.732 83.4246C106.68 83.5082 106.607 83.5771 106.521 83.6247C106.435 83.6724 106.339 83.6973 106.24 83.6971V83.6971Z" fill="#E6E6E6"/>
<path d="M110.728 72.086C111.434 72.086 112.006 71.5101 112.006 70.7996C112.006 70.0892 111.434 69.5133 110.728 69.5133C110.022 69.5133 109.449 70.0892 109.449 70.7996C109.449 71.5101 110.022 72.086 110.728 72.086Z" fill="#080722"/>
<path d="M106.345 69.3857C105.447 69.3857 104.586 69.7447 103.951 70.3836C103.316 71.0225 102.959 71.8891 102.959 72.7926V74.234H104.721L105.564 72.7926L105.817 74.234H111.164L109.731 72.7926C109.731 71.8891 109.374 71.0225 108.739 70.3836C108.104 69.7447 107.243 69.3857 106.345 69.3857V69.3857Z" fill="#080722"/>
<path d="M111.385 69.9185C111.526 69.4738 111.819 69.0933 112.211 68.8442C112.604 68.5951 113.071 68.4931 113.531 68.5564C114.346 68.6934 114.99 69.3523 115.374 70.0883C115.757 70.8243 115.935 71.6479 116.193 72.4375C116.451 73.227 116.817 74.0209 117.468 74.5319C118.119 75.043 119.119 75.1817 119.759 74.6559C119.686 75.2038 119.443 75.7148 119.066 76.1165C118.688 76.5182 118.195 76.7903 117.655 76.8943C117.115 76.9984 116.557 76.9291 116.059 76.6963C115.56 76.4634 115.147 76.0788 114.878 75.5969C114.541 74.9926 114.453 74.2844 114.353 73.5985C114.253 72.9126 114.123 72.203 113.72 71.6408C113.317 71.0786 112.563 70.7114 111.922 70.9674L111.385 69.9185Z" fill="#080722"/>
<path d="M69.8161 71.881C68.6506 71.8808 67.5329 71.4149 66.7088 70.5857C65.8847 69.7564 65.4217 68.6318 65.4217 67.4591C65.4216 66.6593 65.4222 66.0478 65.4234 65.9608C65.4604 63.2213 66.1461 60.5302 67.4235 58.1107C65.3247 61.0017 64.1707 64.4775 64.1211 68.0573C64.1199 68.1443 64.1193 68.7558 64.1194 69.5556C64.1194 70.7283 64.5824 71.853 65.4065 72.6822C66.2306 73.5115 67.3483 73.9774 68.5138 73.9775V73.9775C69.4715 73.9772 70.4029 73.6623 71.1665 73.0807C71.9301 72.4991 72.4842 71.6826 72.7446 70.7553C71.94 71.4813 70.8969 71.8823 69.8161 71.881V71.881Z" fill="#486BC7"/>
<path d="M81.6415 60.2281C82.9889 60.2929 84.3005 60.6857 85.4637 61.3729C86.627 62.06 87.6071 63.021 88.32 64.1732C89.0328 65.3255 89.4571 66.6346 89.5564 67.9881C89.6556 69.3417 89.4269 70.6993 88.8899 71.9444C89.6667 71.0264 90.2376 69.9507 90.5638 68.7906C90.89 67.6305 90.9637 66.4133 90.78 65.2219C90.5963 64.0306 90.1594 62.8931 89.4991 61.887C88.8389 60.8809 87.9708 60.0299 86.9541 59.392C85.9374 58.7541 84.7959 58.3442 83.6075 58.1905C82.419 58.0367 81.2117 58.1425 80.0676 58.5008C78.9235 58.8591 77.8697 59.4614 76.9779 60.2666C76.0862 61.0719 75.3774 62.0611 74.9001 63.167C75.7251 62.1904 76.762 61.4176 77.9309 60.908C79.0997 60.3985 80.3692 60.1659 81.6415 60.2281V60.2281Z" fill="#486BC7"/>
<path d="M82.9935 99.3983C81.8046 99.3985 80.6632 98.9285 79.8156 98.0896C78.9681 97.2506 78.4822 96.1101 78.4629 94.9139C78.4078 91.4472 78.3792 87.176 78.3792 86.6879C78.3785 85.5003 78.5484 84.3189 78.8837 83.1803L78.8821 83.1799C79.0801 82.6084 79.3192 82.0522 79.5976 81.5157C78.7431 82.6615 78.063 83.929 77.5798 85.2765L77.5814 85.2769C77.2461 86.4155 77.0762 87.5969 77.077 88.7844C77.077 89.2726 77.1055 93.5438 77.1606 97.0105C77.1799 98.2066 77.6658 99.3472 78.5134 100.186C79.3609 101.025 80.5023 101.495 81.6913 101.495V101.495C82.6716 101.495 83.6254 101.175 84.4096 100.583C85.1939 99.9911 85.7663 99.1594 86.0411 98.2126C85.2081 98.9769 84.1209 99.3998 82.9935 99.3983V99.3983Z" fill="#486BC7"/>
<path d="M42.2852 118.339L43.8817 118.339L44.6413 112.142L42.2849 112.143L42.2852 118.339Z" fill="#FFB8B8"/>
<path d="M46.9609 119.83L41.9431 119.831L41.943 117.88L45.0221 117.88C45.5363 117.88 46.0294 118.085 46.393 118.451C46.7566 118.817 46.9609 119.313 46.9609 119.83V119.83L46.9609 119.83Z" fill="#080722"/>
<path d="M36.5552 118.339L38.1517 118.339L38.9113 112.142L36.5548 112.143L36.5552 118.339Z" fill="#FFB8B8"/>
<path d="M41.2309 119.83L36.2131 119.831L36.213 117.88L39.2921 117.88C39.8063 117.88 40.2994 118.085 40.663 118.451C41.0266 118.817 41.2309 119.313 41.2309 119.83V119.83L41.2309 119.83Z" fill="#080722"/>
<path d="M37.9504 116.433L36.3909 116.351C36.3105 116.346 36.2317 116.326 36.1592 116.291C36.0866 116.256 36.0217 116.207 35.9681 116.146C35.9146 116.086 35.8736 116.015 35.8474 115.938C35.8212 115.862 35.8103 115.781 35.8155 115.7L37.6794 94.9353L46.2629 97.2658L47.0898 97.0388L44.5037 115.421C44.4817 115.559 44.4135 115.686 44.3103 115.78C44.2071 115.874 44.0751 115.93 43.9362 115.938L42.2551 116.017C42.171 116.021 42.0869 116.008 42.0081 115.979C41.9292 115.949 41.8573 115.903 41.797 115.844C41.7366 115.785 41.6891 115.714 41.6574 115.636C41.6257 115.557 41.6105 115.473 41.6129 115.388L41.9175 104.356C41.9189 104.305 41.9013 104.255 41.8681 104.216C41.8349 104.178 41.7886 104.153 41.7382 104.147C41.6878 104.141 41.637 104.154 41.5959 104.184C41.5548 104.214 41.5262 104.259 41.5159 104.308L38.5784 115.946C38.5507 116.084 38.4762 116.208 38.3677 116.297C38.2592 116.386 38.1234 116.435 37.9834 116.434C37.9725 116.434 37.9615 116.434 37.9504 116.433Z" fill="#080722"/>
<path d="M42.5719 77.9454C44.3384 77.9454 45.7704 76.5045 45.7704 74.7271C45.7704 72.9496 44.3384 71.5087 42.5719 71.5087C40.8054 71.5087 39.3734 72.9496 39.3734 74.7271C39.3734 76.5045 40.8054 77.9454 42.5719 77.9454Z" fill="#FFB8B8"/>
<path d="M37.2466 84.1824L37.5982 91.8175L37.7254 94.5953C37.7305 94.7162 37.7713 94.8328 37.8426 94.9303C37.9139 95.0278 38.0125 95.1016 38.1257 95.1424L46.3738 98.1488C46.4405 98.1737 46.5111 98.1861 46.5821 98.1855C46.6634 98.1859 46.7439 98.1698 46.8188 98.1382C46.8937 98.1066 46.9616 98.0602 47.0183 98.0016C47.0749 97.943 47.1193 97.8736 47.1487 97.7974C47.1782 97.7212 47.192 97.6398 47.1895 97.5581L46.8513 83.83C46.8291 82.7036 46.4171 81.6204 45.6862 80.767C44.9553 79.9136 43.9515 79.3435 42.8477 79.155C42.7679 79.1428 42.6867 79.1305 42.6055 79.1196C41.9211 79.0341 41.2263 79.1006 40.5701 79.3143C39.9139 79.5281 39.3123 79.8839 38.8075 80.3567C38.2847 80.8405 37.874 81.4339 37.6043 82.095C37.3345 82.756 37.2124 83.4687 37.2466 84.1824L37.2466 84.1824Z" fill="#CCCCCC"/>
<path d="M50.3139 96.6253C50.1189 96.5644 49.9406 96.4584 49.7935 96.3159C49.6463 96.1734 49.5343 95.9982 49.4664 95.8044C49.3985 95.6105 49.3765 95.4034 49.4023 95.1995C49.428 94.9957 49.5008 94.8007 49.6148 94.6301L46.8177 90.8877L49.2314 90.7374L51.5175 94.3143C51.7622 94.5047 51.9325 94.7757 51.9985 95.0798C52.0645 95.3839 52.022 95.7017 51.8784 95.9774C51.7348 96.2531 51.4993 96.4691 51.2133 96.5876C50.9272 96.7061 50.6088 96.7194 50.3139 96.6253H50.3139Z" fill="#FFB8B8"/>
<path d="M48.3473 93.9528C48.2732 93.9225 48.2058 93.8778 48.149 93.8211C48.0922 93.7645 48.0472 93.6971 48.0164 93.6228L43.8025 83.5207C43.7198 83.323 43.6767 83.1107 43.6755 82.8961C43.6744 82.6816 43.7153 82.4689 43.7959 82.2702C43.8765 82.0716 43.9953 81.8908 44.1453 81.7384C44.2954 81.5859 44.4738 81.4647 44.6704 81.3817C44.8671 81.2986 45.0781 81.2554 45.2913 81.2544C45.5045 81.2534 45.7159 81.2948 45.9133 81.376C46.1106 81.4573 46.2902 81.5769 46.4416 81.728C46.593 81.8791 46.7133 82.0587 46.7957 82.2567L51.0096 92.3588C51.0719 92.5086 51.0726 92.6771 51.0115 92.8274C50.9505 92.9777 50.8327 93.0975 50.684 93.1605L48.8132 93.9505C48.7396 93.9819 48.6605 93.9983 48.5805 93.9986C48.5005 93.999 48.4213 93.9835 48.3473 93.9528L48.3473 93.9528Z" fill="#CCCCCC"/>
<path d="M41.5435 93.5965L45.5909 85.7987C45.669 85.6488 45.8029 85.5361 45.9635 85.4854C46.124 85.4347 46.2979 85.4501 46.4471 85.5283L52.3219 88.6155C52.471 88.6941 52.5829 88.8289 52.6333 88.9904C52.6837 89.1519 52.6683 89.3269 52.5906 89.4771L48.5432 97.2748C48.4652 97.4248 48.3312 97.5375 48.1707 97.5882C48.0102 97.6388 47.8362 97.6234 47.687 97.5452L41.8122 94.458C41.6632 94.3795 41.5512 94.2447 41.5008 94.0831C41.4505 93.9216 41.4658 93.7466 41.5435 93.5965Z" fill="#486BC7"/>
<path d="M44.2578 90.0339C44.1859 89.8415 44.0703 89.6688 43.9202 89.5294C43.7701 89.39 43.5897 89.2878 43.3933 89.231C43.197 89.1743 42.9903 89.1644 42.7895 89.2024C42.5888 89.2403 42.3996 89.3249 42.2371 89.4494L38.3591 86.861L38.3525 89.2942L42.0361 91.3792C42.2395 91.6138 42.5184 91.7689 42.824 91.8172C43.1296 91.8655 43.4424 91.8041 43.7074 91.6436C43.9725 91.4831 44.1729 91.2338 44.2736 90.9394C44.3742 90.6451 44.3686 90.3245 44.2578 90.0339V90.0339Z" fill="#FFB8B8"/>
<path d="M39.3548 90.5811L36.1855 88.0551C35.8426 87.9392 35.5328 87.7414 35.2826 87.4786C35.0325 87.2158 34.8495 86.8958 34.7493 86.5461C34.6491 86.1964 34.6347 85.8275 34.7074 85.471C34.7801 85.1145 34.9377 84.7811 35.1666 84.4994L38.0443 80.7047C38.2443 80.4588 38.5255 80.2936 38.8366 80.2392C39.1477 80.1847 39.4678 80.2448 39.7386 80.4083C40.0093 80.5719 40.2125 80.828 40.311 81.1298C40.4095 81.4317 40.3967 81.7591 40.275 82.0523L37.9982 85.7999L41.3442 87.3968C41.422 87.434 41.4911 87.4873 41.5469 87.5533C41.6027 87.6193 41.644 87.6964 41.668 87.7796C41.692 87.8629 41.6981 87.9502 41.686 88.036C41.674 88.1218 41.6439 88.2041 41.5979 88.2773L40.2472 90.4281C40.2016 90.5007 40.1413 90.5629 40.0702 90.6105C39.9992 90.6582 39.919 90.6903 39.8348 90.7048C39.8315 90.7053 39.8281 90.7059 39.8248 90.7064C39.7421 90.7189 39.6577 90.7143 39.5769 90.6928C39.496 90.6712 39.4204 90.6332 39.3548 90.5811V90.5811Z" fill="#CCCCCC"/>
<path d="M40.155 76.8822C40.1413 76.8418 40.1369 76.7987 40.1423 76.7564C40.1476 76.714 40.1625 76.6735 40.1859 76.6378C40.2092 76.6022 40.2403 76.5724 40.2769 76.5507C40.3134 76.529 40.3544 76.516 40.3967 76.5128C40.4834 76.5175 40.5681 76.5399 40.646 76.5785C40.7238 76.6171 40.793 76.6712 40.8494 76.7375C40.9652 76.8718 41.0999 76.9882 41.2494 77.083C41.4041 77.1615 41.614 77.1503 41.7022 77.0007C41.785 76.8602 41.7282 76.6721 41.6781 76.5089C41.5505 76.0937 41.4791 75.6631 41.4658 75.2287C41.4514 74.7438 41.5194 74.2378 41.7862 73.8596C42.1305 73.3715 42.7461 73.1863 43.3288 73.1997C43.9114 73.2131 44.4846 73.3941 45.0617 73.5085C45.2609 73.548 45.4951 73.5682 45.6284 73.4128C45.7701 73.2476 45.7181 72.9802 45.6578 72.7571C45.5014 72.1783 45.3355 71.5798 44.9721 71.1124C44.5792 70.6266 44.018 70.3087 43.4014 70.2226C42.8095 70.1488 42.2087 70.2175 41.6483 70.4229C40.7352 70.7124 39.9318 71.2756 39.3455 72.037C38.7411 72.8468 38.4799 73.8644 38.6191 74.8674C38.755 75.741 39.2151 76.5302 39.9065 77.076L40.155 76.8822Z" fill="#080722"/>
<path d="M80.6655 118.364C79.8145 117.992 79.0613 117.425 78.4654 116.709C77.8694 115.993 77.4469 115.147 77.2314 114.239C77.0158 113.33 77.013 112.384 77.2232 111.474C77.4334 110.565 77.8508 109.717 78.4425 108.997C77.7564 109.501 77.1848 110.146 76.7654 110.889C76.3461 111.633 76.0887 112.457 76.0102 113.308C75.9318 114.159 76.0342 115.017 76.3106 115.826C76.5869 116.634 77.031 117.374 77.6132 117.996C78.1955 118.618 78.9027 119.109 79.6878 119.435C80.4729 119.762 81.318 119.916 82.167 119.889C83.016 119.861 83.8495 119.653 84.6122 119.276C85.3749 118.9 86.0493 118.365 86.5907 117.706C85.7463 118.327 84.7549 118.715 83.7154 118.83C82.6758 118.946 81.6243 118.785 80.6655 118.364V118.364Z" fill="#486BC7"/>
<defs>
<radialGradient id="paint0_angular" cx="0" cy="0" r="1" gradientUnits="userSpaceOnUse" gradientTransform="translate(81 81) rotate(143.073) scale(83.2317 49.3504)">
<stop offset="0.285212" stop-color="#5D87C9"/>
<stop offset="0.766046" stop-color="#97BAEF"/>
</radialGradient>
</defs>
</svg>
