<svg width="163" height="162" viewBox="0 0 163 162" fill="none" xmlns="http://www.w3.org/2000/svg">
<circle cx="81.1939" cy="81" r="81" fill="url(#paint0_angular)"/>
<path d="M85.7204 86.3403C85.6181 86.3403 85.516 86.3349 85.4143 86.324L61.9584 83.819C61.7853 83.8005 61.6174 83.7481 61.4646 83.6647C61.3117 83.5814 61.1767 83.4687 61.0673 83.3332C60.9579 83.1976 60.8763 83.0419 60.8272 82.8748C60.778 82.7078 60.7622 82.5326 60.7807 82.3594L61.1004 79.365L61.2018 79.3758L61.1004 79.365C61.1381 79.0154 61.3129 78.6951 61.5865 78.4743C61.8601 78.2535 62.21 78.1502 62.5596 78.1871L86.0155 80.6921C86.7358 80.7691 87.3992 81.1193 87.8692 81.6706C88.3392 82.2219 88.5801 82.9325 88.5423 83.656C88.5045 84.3795 88.1908 85.0611 87.6659 85.5604C87.141 86.0597 86.4448 86.3388 85.7204 86.3403V86.3403Z" fill="#753F47"/>
<path d="M73.9538 107.725H48.8591C48.5075 107.724 48.1705 107.585 47.9219 107.336C47.6733 107.087 47.5335 106.75 47.5331 106.399V103.387C47.5335 103.036 47.6733 102.698 47.9219 102.45C48.1705 102.201 48.5075 102.061 48.8591 102.061H73.9538C74.3053 102.061 74.6424 102.201 74.8909 102.45C75.1395 102.698 75.2794 103.036 75.2798 103.387V106.399C75.2794 106.75 75.1395 107.087 74.8909 107.336C74.6424 107.585 74.3053 107.724 73.9538 107.725V107.725Z" fill="#753F47"/>
<path d="M86.6831 106.687C86.5413 106.687 86.4005 106.664 86.266 106.62L62.4366 98.7504C62.1029 98.6397 61.8267 98.4013 61.6686 98.0872C61.5105 97.7732 61.4834 97.4092 61.5932 97.0752L62.5372 94.2156L62.6341 94.2476L62.5372 94.2156C62.6475 93.8816 62.8859 93.6051 63.2 93.4469C63.5141 93.2887 63.8781 93.2618 64.2121 93.3721L88.0414 101.242C88.3751 101.352 88.6513 101.591 88.8095 101.905C88.9676 102.219 88.9947 102.583 88.8849 102.917L87.9408 105.776C87.8533 106.041 87.6847 106.271 87.459 106.435C87.2332 106.598 86.9618 106.687 86.6831 106.687V106.687Z" fill="#753F47"/>
<path d="M55.1511 107.77C55.1278 107.77 55.1045 107.769 55.081 107.768C54.907 107.76 54.7364 107.717 54.5792 107.642C54.4219 107.567 54.281 107.461 54.1647 107.332L52.1485 105.095C51.9134 104.834 51.7915 104.49 51.8097 104.139C51.8278 103.788 51.9845 103.458 52.2453 103.222L62.9399 93.5776C63.2011 93.3422 63.5452 93.2201 63.8964 93.2382C64.2475 93.2564 64.5772 93.4133 64.8127 93.6745L66.8289 95.9111C67.064 96.1725 67.1859 96.5165 67.1677 96.8677C67.1496 97.2188 66.9929 97.5484 66.7321 97.7842L56.0375 107.429C55.7948 107.649 55.4788 107.771 55.1511 107.77V107.77Z" fill="#753F47"/>
<path d="M88.5307 72.7807C94.2766 72.7807 98.9346 68.1219 98.9346 62.3749C98.9346 56.6279 94.2766 51.9691 88.5307 51.9691C82.7847 51.9691 78.1267 56.6279 78.1267 62.3749C78.1267 68.1219 82.7847 72.7807 88.5307 72.7807Z" fill="#753F47"/>
<path d="M93.6063 107.773H71.5497C71.3166 107.773 71.0874 107.713 70.8853 107.596C70.6832 107.48 70.5154 107.313 70.3989 107.111C70.2823 106.909 70.2212 106.68 70.2216 106.447C70.222 106.214 70.284 105.985 70.4013 105.783L87.3823 76.3661C87.4987 76.1645 87.6661 75.9971 87.8677 75.8807C88.0692 75.7643 88.2979 75.703 88.5307 75.703C88.7634 75.703 88.9921 75.7643 89.1937 75.8807C89.3953 75.9971 89.5627 76.1645 89.679 76.3661L100.707 95.4711C101.427 96.7178 101.806 98.132 101.806 99.5715C101.806 101.011 101.427 102.425 100.707 103.672C99.9876 104.919 98.9525 105.954 97.7061 106.674C96.4596 107.394 95.0456 107.773 93.6063 107.773V107.773Z" fill="#2F2E41"/>
<path d="M79.955 66.3349C79.2806 66.3162 78.4413 66.2928 77.7947 65.8203C77.6022 65.6739 77.444 65.4871 77.3312 65.2731C77.2184 65.0591 77.1538 64.823 77.1419 64.5814C77.1302 64.4096 77.1583 64.2375 77.2242 64.0785C77.29 63.9194 77.3917 63.7777 77.5214 63.6645C77.859 63.379 78.3521 63.3121 78.8837 63.4683L78.3331 59.4436L78.7373 59.3882L79.3846 64.1198L79.0471 63.9649C78.6558 63.7854 78.1186 63.6941 77.7847 63.9761C77.7028 64.0499 77.6389 64.1416 77.5981 64.2441C77.5574 64.3465 77.5408 64.457 77.5496 64.5669C77.5595 64.7468 77.608 64.9224 77.6918 65.0818C77.7756 65.2412 77.8928 65.3807 78.0354 65.4908C78.5386 65.8584 79.2076 65.9058 79.9664 65.927L79.955 66.3349Z" fill="#2F2E41"/>
<path d="M83.2701 59.7908H81.0726V60.1989H83.2701V59.7908Z" fill="#2F2E41"/>
<path d="M94.6992 50.1026C94.9881 48.9216 95.5237 47.8151 96.2707 46.8559C97.0177 45.8966 97.9592 45.1063 99.0333 44.537C100.135 43.9707 101.349 43.657 102.587 43.6186C103.825 43.5802 105.056 43.818 106.19 44.3149C107.352 44.8127 108.384 45.571 109.206 46.5313C110.028 47.4916 110.619 48.6281 110.932 49.853C111.254 51.0853 111.299 52.3737 111.062 53.6253C110.772 54.951 110.21 56.2018 109.41 57.2983C108.604 58.4656 107.657 59.5249 106.787 60.6433C105.914 61.764 105.119 62.9433 104.407 64.173C102.264 67.8782 100.905 71.9845 100.414 76.237C100.248 77.5214 100.217 78.8196 100.32 80.1105C100.555 82.6173 101.526 85.0727 103.754 86.4367C104.939 87.1619 106.307 87.5364 107.659 87.7984C109.178 88.1201 110.732 88.2415 112.281 88.1596C114.901 87.9734 117.523 86.8799 119.045 84.6529C119.382 84.157 119.645 83.6151 119.828 83.0441C119.949 82.6683 119.358 82.5074 119.238 82.8813C118.432 85.3803 115.986 86.9207 113.511 87.3904C111.969 87.6487 110.395 87.6471 108.854 87.3858C107.454 87.1767 106.012 86.8874 104.729 86.2695C103.563 85.7257 102.596 84.8316 101.962 83.7118C101.39 82.6308 101.043 81.4445 100.944 80.2252C100.671 77.5557 101.115 74.7919 101.78 72.2098C102.492 69.4463 103.583 66.7948 105.023 64.3313C105.743 63.1004 106.548 61.9219 107.433 60.8044C108.31 59.6991 109.245 58.6361 110.036 57.4652C110.816 56.3607 111.366 55.11 111.653 53.7881C111.896 52.5197 111.874 51.2144 111.586 49.9553C111.309 48.7125 110.766 47.5445 109.996 46.5311C109.225 45.5177 108.244 44.683 107.121 44.0842C104.916 42.921 102.23 42.6425 99.8711 43.4996C97.5825 44.3443 95.7197 46.0582 94.6874 48.2689C94.4392 48.8051 94.2455 49.3649 94.1091 49.9399C94.0189 50.323 94.6089 50.4865 94.6992 50.1026V50.1026Z" fill="#2F2E41"/>
<path d="M96.6877 50.6002C97.0714 49.5065 97.8445 48.5927 98.8593 48.0333C99.8742 47.4739 101.06 47.3083 102.189 47.568C102.572 47.6576 102.736 47.0675 102.352 46.9777C101.065 46.6621 99.7071 46.8429 98.548 47.4841C97.3889 48.1253 96.514 49.1798 96.0976 50.4374C95.9692 50.8107 96.5602 50.9711 96.6877 50.6002Z" fill="#2F2E41"/>
<path d="M95.7487 53.4915C95.5968 53.4915 95.4466 53.4604 95.3072 53.4003L92.4959 52.1918C92.3605 52.1336 92.2379 52.0493 92.1351 51.9437C92.0323 51.8381 91.9513 51.7133 91.8967 51.5765C91.8421 51.4396 91.815 51.2933 91.817 51.1459C91.8189 50.9985 91.8499 50.853 91.908 50.7176C91.9662 50.5822 92.0505 50.4596 92.1561 50.3568C92.2616 50.254 92.3864 50.1729 92.5232 50.1184C92.6601 50.0638 92.8064 50.0367 92.9537 50.0386C93.101 50.0406 93.2466 50.0715 93.3819 50.1297L96.1933 51.3383C96.4307 51.4403 96.6257 51.6213 96.7452 51.8505C96.8646 52.0797 96.9013 52.3431 96.849 52.5963C96.7968 52.8494 96.6587 53.0768 96.4582 53.2399C96.2577 53.403 96.0071 53.4919 95.7487 53.4915V53.4915Z" fill="#2F2E41"/>
<path d="M91.6311 58.7867L90.3563 50.5252C90.303 50.1798 89.776 49.9745 89.1792 50.0666L86.7034 50.4487C86.1066 50.5409 85.666 50.8956 85.7192 51.241L86.9398 59.1512C86.1815 59.721 85.6285 60.5215 85.3638 61.4325C85.0992 62.3434 85.1372 63.3157 85.4721 64.2032C85.807 65.0907 86.4208 65.8456 87.2213 66.3545C88.0218 66.8633 88.9657 67.0987 89.9113 67.0252C90.857 66.9517 91.7532 66.5733 92.4655 65.9469C93.1778 65.3205 93.6676 64.4798 93.8615 63.5512C94.0553 62.6226 93.9427 61.6561 93.5405 60.797C93.1383 59.9379 92.4683 59.2324 91.6311 58.7866V58.7867Z" fill="#CCCCCC"/>
<path d="M89.568 64.5873C90.6338 64.5873 91.4978 63.7231 91.4978 62.6571C91.4978 61.5911 90.6338 60.7269 89.568 60.7269C88.5022 60.7269 87.6382 61.5911 87.6382 62.6571C87.6382 63.7231 88.5022 64.5873 89.568 64.5873Z" fill="#8CB0E8"/>
<path d="M56.0371 86.2969C55.4511 86.2982 54.8842 86.0883 54.4404 85.7055L42.8464 75.6871C42.6035 75.4772 42.4043 75.2215 42.2602 74.9346C42.116 74.6476 42.0298 74.3351 42.0065 74.0149C41.9831 73.6947 42.023 73.373 42.124 73.0682C42.2249 72.7634 42.3849 72.4815 42.5948 72.2385C42.6336 72.1936 42.674 72.1501 42.716 72.1081L54.7274 60.0946C54.9544 59.8675 55.2239 59.6874 55.5205 59.5645C55.8171 59.4416 56.135 59.3784 56.456 59.3784C56.777 59.3784 57.0949 59.4416 57.3915 59.5645C57.6881 59.6874 57.9575 59.8675 58.1845 60.0946L68.9898 70.9017C69.4476 71.3606 69.7046 71.9824 69.7046 72.6306C69.7046 73.2788 69.4476 73.9006 68.9898 74.3595L57.7671 85.5842C57.5398 85.8109 57.27 85.9906 56.9731 86.1129C56.6762 86.2352 56.3582 86.2977 56.0371 86.2969V86.2969ZM42.8602 72.2524L43.0045 72.3966C42.9695 72.4316 42.9358 72.4679 42.9035 72.5053C42.7286 72.7077 42.5953 72.9426 42.5113 73.1965C42.4272 73.4504 42.3939 73.7184 42.4134 73.9852C42.4329 74.252 42.5047 74.5123 42.6247 74.7513C42.7448 74.9903 42.9108 75.2034 43.1131 75.3782L54.7072 85.3966C55.0973 85.7313 55.5991 85.9067 56.1127 85.888C56.6262 85.8693 57.1139 85.6578 57.4786 85.2956L68.7013 74.0709C69.0827 73.6886 69.2968 73.1706 69.2968 72.6306C69.2968 72.0905 69.0827 71.5726 68.7013 71.1902L57.8961 60.3831C57.707 60.1939 57.4825 60.0439 57.2354 59.9415C56.9883 59.8391 56.7234 59.7864 56.456 59.7864C56.1885 59.7864 55.9237 59.8391 55.6766 59.9415C55.4295 60.0439 55.205 60.1939 55.0159 60.3831L43.0045 72.3966L42.8602 72.2524Z" fill="#3F3D56"/>
<path d="M55.3406 82.7062L45.9606 74.1678L56.7619 63.3645L65.7204 72.3245L55.3406 82.7062ZM46.5514 74.1538L55.3273 82.1423L65.1433 72.3245L56.7619 63.9415L46.5514 74.1538Z" fill="#3F3D56"/>
<path d="M89.752 110.166C89.4193 110.166 89.0989 110.04 88.8545 109.814C88.6101 109.589 88.4595 109.279 88.4326 108.947L86.5236 85.4314C86.4935 85.0607 86.5367 84.6877 86.6507 84.3338C86.7648 83.9798 86.9474 83.6517 87.1882 83.3683C87.4289 83.0849 87.7232 82.8518 88.0541 82.6821C88.3849 82.5124 88.746 82.4096 89.1166 82.3795C89.4872 82.3494 89.8601 82.3926 90.2141 82.5067C90.568 82.6207 90.896 82.8034 91.1793 83.0442C91.4626 83.285 91.6958 83.5793 91.8654 83.9103C92.0351 84.2412 92.1378 84.6023 92.1679 84.973L94.0768 108.489C94.1049 108.84 93.9928 109.187 93.7651 109.455C93.5375 109.723 93.2129 109.889 92.8626 109.918L89.8615 110.162C89.8249 110.165 89.7883 110.166 89.752 110.166Z" fill="#753F47"/>
<defs>
<radialGradient id="paint0_angular" cx="0" cy="0" r="1" gradientUnits="userSpaceOnUse" gradientTransform="translate(81.1939 81) rotate(143.073) scale(83.2317 49.3504)">
<stop offset="0.285212" stop-color="#5D87C9"/>
<stop offset="0.766046" stop-color="#97BAEF"/>
</radialGradient>
</defs>
</svg>
